<?xml version="1.0" encoding="UTF-8"?>
<svg width="1200" height="800" viewBox="0 0 1200 800" xmlns="http://www.w3.org/2000/svg">
  <defs>
    <marker id="arrowhead-dark" markerWidth="12" markerHeight="12" refX="10" refY="6" orient="auto">
      <polygon points="0 0, 12 6, 0 12" fill="#425466"/>
    </marker>
    <marker id="arrowhead-white" markerWidth="12" markerHeight="12" refX="10" refY="6" orient="auto">
      <polygon points="0 0, 12 6, 0 12" fill="#FFFFFF"/>
    </marker>
    <style>
      @import url('https://fonts.googleapis.com/css2?family=Inter:wght@400;500;600;700&display=swap');
      * { font-family: 'Inter', system-ui, -apple-system, sans-serif; }
      .title { font-size: 22px; font-weight: 700; fill: #FFFFFF; }
      .header { font-size: 16px; font-weight: 600; fill: #0A2540; }
      .subheader { font-size: 14px; font-weight: 600; fill: #0A2540; }
      .step-text { font-size: 13px; font-weight: 400; fill: #0A2540; }
      .subtext { font-size: 11px; font-weight: 400; fill: #425466; }
      .banner-text { font-size: 14px; font-weight: 600; fill: #FFFFFF; }
      .pill-text { font-size: 10px; font-weight: 700; fill: #FFFFFF; text-anchor: middle; }
    </style>
  </defs>
  <rect width="1200" height="800" fill="#FFFFFF"/>
  <!-- Title Bar -->
  <rect x="0" y="0" width="1200" height="60" fill="#0A2540" rx="0"/>
  <text x="600.0" y="38.0" text-anchor="middle" class="title">Gap Analysis — Severity by Category and Persona</text>
  <rect x="80" y="100" width="200" height="50" fill="#0A2540" rx="4 4 0 0"/>
  <text x="180" y="132" text-anchor="middle" class="banner-text">Category</text>
  <rect x="280" y="100" width="250" height="50" fill="#0A2540" rx="4 4 0 0"/>
  <text x="405" y="132" text-anchor="middle" class="banner-text">Operator</text>
  <rect x="530" y="100" width="250" height="50" fill="#0A2540" rx="4 4 0 0"/>
  <text x="655" y="132" text-anchor="middle" class="banner-text">Developer</text>
  <rect x="780" y="100" width="250" height="50" fill="#0A2540" rx="4 4 0 0"/>
  <text x="905" y="132" text-anchor="middle" class="banner-text">Running App</text>
  <rect x="80" y="150" width="200" height="50" fill="#FFFFFF" stroke="#D0D7DE" stroke-width="1"/>
  <text x="92" y="182" class="step-text">App Registration</text>
  <rect x="280" y="150" width="250" height="50" fill="#FFFFFF" stroke="#D0D7DE" stroke-width="1"/>
  <rect x="320" y="163" width="80" height="24" fill="#CF222E" rx="4"/>
  <text x="360" y="180" text-anchor="middle" class="pill-text" fill="#FFFFFF">BLOCKER</text>
  <rect x="530" y="150" width="250" height="50" fill="#FFFFFF" stroke="#D0D7DE" stroke-width="1"/>
  <rect x="570" y="163" width="80" height="24" fill="#CF222E" rx="4"/>
  <text x="610" y="180" text-anchor="middle" class="pill-text" fill="#FFFFFF">BLOCKER</text>
  <rect x="780" y="150" width="250" height="50" fill="#FFFFFF" stroke="#D0D7DE" stroke-width="1"/>
  <rect x="820" y="163" width="80" height="24" fill="#D0D7DE" rx="4"/>
  <text x="860" y="180" text-anchor="middle" class="pill-text" fill="#0A2540">N/A</text>
  <rect x="80" y="200" width="200" height="50" fill="#F6F8FA" stroke="#D0D7DE" stroke-width="1"/>
  <text x="92" y="232" class="step-text">Security Model</text>
  <rect x="280" y="200" width="250" height="50" fill="#F6F8FA" stroke="#D0D7DE" stroke-width="1"/>
  <rect x="320" y="213" width="80" height="24" fill="#CF222E" rx="4"/>
  <text x="360" y="230" text-anchor="middle" class="pill-text" fill="#FFFFFF">BROKEN</text>
  <rect x="530" y="200" width="250" height="50" fill="#F6F8FA" stroke="#D0D7DE" stroke-width="1"/>
  <rect x="570" y="213" width="80" height="24" fill="#9A6700" rx="4"/>
  <text x="610" y="230" text-anchor="middle" class="pill-text" fill="#FFFFFF">GAP</text>
  <rect x="780" y="200" width="250" height="50" fill="#F6F8FA" stroke="#D0D7DE" stroke-width="1"/>
  <rect x="820" y="213" width="80" height="24" fill="#9A6700" rx="4"/>
  <text x="860" y="230" text-anchor="middle" class="pill-text" fill="#FFFFFF">GAP</text>
  <rect x="80" y="250" width="200" height="50" fill="#FFFFFF" stroke="#D0D7DE" stroke-width="1"/>
  <text x="92" y="282" class="step-text">Scalability</text>
  <rect x="280" y="250" width="250" height="50" fill="#FFFFFF" stroke="#D0D7DE" stroke-width="1"/>
  <rect x="320" y="263" width="80" height="24" fill="#CF222E" rx="4"/>
  <text x="360" y="280" text-anchor="middle" class="pill-text" fill="#FFFFFF">BROKEN</text>
  <rect x="530" y="250" width="250" height="50" fill="#FFFFFF" stroke="#D0D7DE" stroke-width="1"/>
  <rect x="570" y="263" width="80" height="24" fill="#9A6700" rx="4"/>
  <text x="610" y="280" text-anchor="middle" class="pill-text" fill="#FFFFFF">GAP</text>
  <rect x="780" y="250" width="250" height="50" fill="#FFFFFF" stroke="#D0D7DE" stroke-width="1"/>
  <rect x="820" y="263" width="80" height="24" fill="#CF222E" rx="4"/>
  <text x="860" y="280" text-anchor="middle" class="pill-text" fill="#FFFFFF">BROKEN</text>
  <rect x="80" y="300" width="200" height="50" fill="#F6F8FA" stroke="#D0D7DE" stroke-width="1"/>
  <text x="92" y="332" class="step-text">Resilience</text>
  <rect x="280" y="300" width="250" height="50" fill="#F6F8FA" stroke="#D0D7DE" stroke-width="1"/>
  <rect x="320" y="313" width="80" height="24" fill="#CF222E" rx="4"/>
  <text x="360" y="330" text-anchor="middle" class="pill-text" fill="#FFFFFF">BROKEN</text>
  <rect x="530" y="300" width="250" height="50" fill="#F6F8FA" stroke="#D0D7DE" stroke-width="1"/>
  <rect x="570" y="313" width="80" height="24" fill="#CF222E" rx="4"/>
  <text x="610" y="330" text-anchor="middle" class="pill-text" fill="#FFFFFF">BROKEN</text>
  <rect x="780" y="300" width="250" height="50" fill="#F6F8FA" stroke="#D0D7DE" stroke-width="1"/>
  <rect x="820" y="313" width="80" height="24" fill="#CF222E" rx="4"/>
  <text x="860" y="330" text-anchor="middle" class="pill-text" fill="#FFFFFF">BROKEN</text>
  <rect x="80" y="350" width="200" height="50" fill="#FFFFFF" stroke="#D0D7DE" stroke-width="1"/>
  <text x="92" y="382" class="step-text">Developer Experience</text>
  <rect x="280" y="350" width="250" height="50" fill="#FFFFFF" stroke="#D0D7DE" stroke-width="1"/>
  <rect x="320" y="363" width="80" height="24" fill="#D0D7DE" rx="4"/>
  <text x="360" y="380" text-anchor="middle" class="pill-text" fill="#0A2540">N/A</text>
  <rect x="530" y="350" width="250" height="50" fill="#FFFFFF" stroke="#D0D7DE" stroke-width="1"/>
  <rect x="570" y="363" width="80" height="24" fill="#9A6700" rx="4"/>
  <text x="610" y="380" text-anchor="middle" class="pill-text" fill="#FFFFFF">GAP</text>
  <rect x="780" y="350" width="250" height="50" fill="#FFFFFF" stroke="#D0D7DE" stroke-width="1"/>
  <rect x="820" y="363" width="80" height="24" fill="#9A6700" rx="4"/>
  <text x="860" y="380" text-anchor="middle" class="pill-text" fill="#FFFFFF">GAP</text>
  <rect x="80" y="400" width="200" height="50" fill="#F6F8FA" stroke="#D0D7DE" stroke-width="1"/>
  <text x="92" y="432" class="step-text">Operations</text>
  <rect x="280" y="400" width="250" height="50" fill="#F6F8FA" stroke="#D0D7DE" stroke-width="1"/>
  <rect x="320" y="413" width="80" height="24" fill="#CF222E" rx="4"/>
  <text x="360" y="430" text-anchor="middle" class="pill-text" fill="#FFFFFF">BROKEN</text>
  <rect x="530" y="400" width="250" height="50" fill="#F6F8FA" stroke="#D0D7DE" stroke-width="1"/>
  <rect x="570" y="413" width="80" height="24" fill="#D0D7DE" rx="4"/>
  <text x="610" y="430" text-anchor="middle" class="pill-text" fill="#0A2540">N/A</text>
  <rect x="780" y="400" width="250" height="50" fill="#F6F8FA" stroke="#D0D7DE" stroke-width="1"/>
  <rect x="820" y="413" width="80" height="24" fill="#9A6700" rx="4"/>
  <text x="860" y="430" text-anchor="middle" class="pill-text" fill="#FFFFFF">GAP</text>
  <!-- SUMMARY -->
  <rect x="80" y="450" width="1040" height="60" fill="#F6F8FA" stroke="#D0D7DE" stroke-width="1" rx="8"/>
  <text x="100" y="475" class="step-text" font-weight="600">Summary:</text>
  <text x="220" y="475" class="step-text" font-weight="600" fill="#CF222E">BLOCKER: 1</text>
  <text x="320" y="475" class="step-text" font-weight="600" fill="#CF222E">• BROKEN: 7</text>
  <text x="510" y="475" class="step-text" font-weight="600" fill="#9A6700">• GAP: 6</text>
  <text x="650" y="475" class="step-text" font-weight="600" fill="#D0D7DE">• N/A: 4</text>
</svg>
