<?xml version="1.0" encoding="UTF-8"?>
<svg viewBox="0 0 1200 850" xmlns="http://www.w3.org/2000/svg">
  <defs>
    <style>
      .header-text { font-family: 'Segoe UI', 'Helvetica Neue', sans-serif; font-size: 16px; font-weight: 700; fill: white; }
      .subtext { font-family: 'Segoe UI', 'Helvetica Neue', sans-serif; font-size: 12px; fill: #374151; }
      .service-text { font-family: 'Segoe UI', 'Helvetica Neue', sans-serif; font-size: 11px; font-weight: 600; fill: white; text-anchor: middle; }
      .label-text { font-family: 'Segoe UI', 'Helvetica Neue', sans-serif; font-size: 10px; fill: #1f2937; font-weight: 500; }
      .actor-text { font-family: 'Segoe UI', 'Helvetica Neue', sans-serif; font-size: 13px; font-weight: 600; fill: #1e3a5f; text-anchor: middle; }
    </style>
    <linearGradient id="grad-header" x1="0%" y1="0%" x2="100%" y2="0%">
      <stop offset="0%" style="stop-color:#1e3a5f" /><stop offset="100%" style="stop-color:#0f172a" />
    </linearGradient>
    <linearGradient id="grad-teal" x1="0%" y1="0%" x2="0%" y2="100%">
      <stop offset="0%" style="stop-color:#14b8a6" /><stop offset="100%" style="stop-color:#0d9488" />
    </linearGradient>
    <linearGradient id="grad-amber" x1="0%" y1="0%" x2="0%" y2="100%">
      <stop offset="0%" style="stop-color:#f59e0b" /><stop offset="100%" style="stop-color:#d97706" />
    </linearGradient>
    <linearGradient id="grad-emerald" x1="0%" y1="0%" x2="0%" y2="100%">
      <stop offset="0%" style="stop-color:#10b981" /><stop offset="100%" style="stop-color:#059669" />
    </linearGradient>
    <linearGradient id="grad-red" x1="0%" y1="0%" x2="0%" y2="100%">
      <stop offset="0%" style="stop-color:#ef4444" /><stop offset="100%" style="stop-color:#dc2626" />
    </linearGradient>
    <linearGradient id="grad-blue" x1="0%" y1="0%" x2="0%" y2="100%">
      <stop offset="0%" style="stop-color:#3b82f6" /><stop offset="100%" style="stop-color:#1d4ed8" />
    </linearGradient>
    <linearGradient id="grad-purple" x1="0%" y1="0%" x2="0%" y2="100%">
      <stop offset="0%" style="stop-color:#a78bfa" /><stop offset="100%" style="stop-color:#7c3aed" />
    </linearGradient>
    <filter id="shadow" x="-50%" y="-50%" width="200%" height="200%">
      <feDropShadow dx="0" dy="2" stdDeviation="3" flood-opacity="0.15"/>
    </filter>
    <filter id="shadow-bold" x="-50%" y="-50%" width="200%" height="200%">
      <feDropShadow dx="0" dy="4" stdDeviation="4" flood-opacity="0.25"/>
    </filter>
    <marker id="arr-teal" markerWidth="10" markerHeight="10" refX="9" refY="3" orient="auto">
      <polygon points="0 0, 10 3, 0 6" fill="#0d9488" />
    </marker>
    <marker id="arr-emerald" markerWidth="10" markerHeight="10" refX="9" refY="3" orient="auto">
      <polygon points="0 0, 10 3, 0 6" fill="#059669" />
    </marker>
    <marker id="arr-amber" markerWidth="10" markerHeight="10" refX="9" refY="3" orient="auto">
      <polygon points="0 0, 10 3, 0 6" fill="#d97706" />
    </marker>
    <marker id="arr-red" markerWidth="10" markerHeight="10" refX="9" refY="3" orient="auto">
      <polygon points="0 0, 10 3, 0 6" fill="#dc2626" />
    </marker>
    <marker id="arr-blue" markerWidth="10" markerHeight="10" refX="9" refY="3" orient="auto">
      <polygon points="0 0, 10 3, 0 6" fill="#1d4ed8" />
    </marker>
    <marker id="arr-purple" markerWidth="10" markerHeight="10" refX="9" refY="3" orient="auto">
      <polygon points="0 0, 10 3, 0 6" fill="#7c3aed" />
    </marker>
  </defs>

  <rect width="1200" height="850" fill="#f8fafc"/>

  <!-- Header -->
  <rect width="1200" height="60" fill="url(#grad-header)"/>
  <text x="600" y="25" class="header-text" text-anchor="middle" font-size="24">AgentWrit Architecture Overview</text>
  <text x="600" y="47" class="header-text" text-anchor="middle" font-size="12" opacity="0.8">Ephemeral Agent Credentialing — 10-Component Broker · Ed25519 · SPIFFE · Hash-Chain Audit</text>

  <!-- LAYER 1: EXTERNAL ACTORS -->
  <!-- Operator -->
  <g filter="url(#shadow)">
    <rect x="80" y="80" width="160" height="100" rx="8" fill="#e0f2fe" stroke="#1e3a5f" stroke-width="2"/>
    <circle cx="160" cy="110" r="18" fill="#1e3a5f"/>
    <circle cx="153" cy="108" r="4" fill="#e0f2fe"/>
    <path d="M 153 115 L 153 130 M 148 120 L 158 120" stroke="#e0f2fe" stroke-width="2" stroke-linecap="round"/>
    <text x="160" y="158" class="actor-text">Operator</text>
    <text x="160" y="173" class="label-text" text-anchor="middle">awrit CLI</text>
  </g>

  <!-- Developer App -->
  <g filter="url(#shadow)">
    <rect x="300" y="80" width="160" height="100" rx="8" fill="#f0fdf4" stroke="#059669" stroke-width="2"/>
    <rect x="350" y="110" width="40" height="35" rx="3" fill="#059669"/>
    <rect x="357" y="117" width="6" height="6" fill="#f0fdf4"/>
    <rect x="366" y="117" width="6" height="6" fill="#f0fdf4"/>
    <rect x="357" y="126" width="6" height="6" fill="#f0fdf4"/>
    <rect x="366" y="126" width="6" height="6" fill="#f0fdf4"/>
    <text x="380" y="158" class="actor-text">Developer</text>
    <text x="380" y="173" class="label-text" text-anchor="middle">App (SDK)</text>
  </g>

  <!-- AI Agent -->
  <g filter="url(#shadow)">
    <rect x="520" y="80" width="160" height="100" rx="8" fill="#fef3c7" stroke="#d97706" stroke-width="2"/>
    <circle cx="600" cy="108" r="16" fill="#d97706"/>
    <circle cx="595" cy="105" r="3" fill="#fef3c7"/>
    <circle cx="605" cy="105" r="3" fill="#fef3c7"/>
    <path d="M 600 115 L 600 130 M 595 120 L 605 120" stroke="#fef3c7" stroke-width="2" stroke-linecap="round"/>
    <text x="600" y="158" class="actor-text">AI Agent</text>
    <text x="600" y="173" class="label-text" text-anchor="middle">Ephemeral</text>
  </g>

  <!-- Resource Server -->
  <g filter="url(#shadow)">
    <rect x="740" y="80" width="160" height="100" rx="8" fill="#ede9fe" stroke="#7c3aed" stroke-width="2"/>
    <rect x="785" y="105" width="50" height="40" rx="3" fill="#7c3aed"/>
    <line x1="790" y1="115" x2="830" y2="115" stroke="#ede9fe" stroke-width="2"/>
    <line x1="790" y1="125" x2="830" y2="125" stroke="#ede9fe" stroke-width="2"/>
    <line x1="790" y1="135" x2="830" y2="135" stroke="#ede9fe" stroke-width="2"/>
    <text x="820" y="158" class="actor-text">Resource</text>
    <text x="820" y="173" class="label-text" text-anchor="middle">Server / API</text>
  </g>

  <!-- Monitoring -->
  <g filter="url(#shadow)">
    <rect x="960" y="80" width="160" height="100" rx="8" fill="#dbeafe" stroke="#1d4ed8" stroke-width="2"/>
    <rect x="1005" y="105" width="50" height="40" rx="3" fill="#1d4ed8"/>
    <circle cx="1015" cy="118" r="3" fill="#dbeafe"/>
    <circle cx="1030" cy="118" r="3" fill="#dbeafe"/>
    <circle cx="1045" cy="118" r="3" fill="#dbeafe"/>
    <line x1="1010" y1="132" x2="1048" y2="132" stroke="#dbeafe" stroke-width="2"/>
    <text x="1040" y="158" class="actor-text">Monitoring</text>
    <text x="1040" y="173" class="label-text" text-anchor="middle">Prometheus</text>
  </g>

  <!-- Actor arrows -->
  <path d="M 160 180 L 160 220" stroke="#1e3a5f" stroke-width="2" marker-end="url(#arr-teal)" stroke-dasharray="5,5"/>
  <path d="M 380 180 L 380 220" stroke="#059669" stroke-width="2" marker-end="url(#arr-emerald)"/>
  <path d="M 600 180 L 600 220" stroke="#d97706" stroke-width="2" marker-end="url(#arr-amber)"/>
  <path d="M 820 180 L 820 220" stroke="#7c3aed" stroke-width="2" marker-end="url(#arr-purple)"/>
  <path d="M 1040 180 L 1040 220" stroke="#1d4ed8" stroke-width="2" marker-end="url(#arr-blue)"/>

  <!-- Flow labels -->
  <text x="140" y="203" class="label-text" font-size="9" fill="#1e3a5f">admin API</text>
  <text x="362" y="203" class="label-text" font-size="9" fill="#059669">app auth</text>
  <text x="578" y="203" class="label-text" font-size="9" fill="#d97706">challenge</text>
  <text x="802" y="203" class="label-text" font-size="9" fill="#7c3aed">validate</text>
  <text x="1020" y="203" class="label-text" font-size="9" fill="#1d4ed8">/metrics</text>

  <!-- LAYER 2: BROKER CORE -->
  <g filter="url(#shadow-bold)">
    <rect x="60" y="225" width="1080" height="40" rx="6" fill="url(#grad-header)"/>
    <text x="600" y="250" class="header-text" text-anchor="middle" font-size="14">AgentWrit Broker Core — Single Binary, 5 Dependencies</text>
  </g>

  <!-- Row 1: Identity, Token, App, Authz, Delegation -->
  <g filter="url(#shadow)">
    <rect x="70" y="285" width="195" height="100" rx="6" fill="url(#grad-teal)"/>
    <text x="167" y="305" class="service-text">Identity Service</text>
    <text x="167" y="320" class="label-text" text-anchor="middle" font-size="9" fill="#ecfdf5">Challenge-Response</text>
    <text x="167" y="333" class="label-text" text-anchor="middle" font-size="9" fill="#ecfdf5">Ed25519 Verification</text>
    <text x="167" y="346" class="label-text" text-anchor="middle" font-size="9" fill="#ecfdf5">SPIFFE ID Generation</text>
    <text x="167" y="359" class="label-text" text-anchor="middle" font-size="9" fill="#ecfdf5">Launch Token Consume</text>
  </g>

  <g filter="url(#shadow)">
    <rect x="275" y="285" width="195" height="100" rx="6" fill="url(#grad-emerald)"/>
    <text x="372" y="305" class="service-text">Token Service</text>
    <text x="372" y="320" class="label-text" text-anchor="middle" font-size="9" fill="#f0fdf4">EdDSA JWT Issuance</text>
    <text x="372" y="333" class="label-text" text-anchor="middle" font-size="9" fill="#f0fdf4">Verify + Revocation Check</text>
    <text x="372" y="346" class="label-text" text-anchor="middle" font-size="9" fill="#f0fdf4">Renewal (old revoked)</text>
    <text x="372" y="359" class="label-text" text-anchor="middle" font-size="9" fill="#f0fdf4">MaxTTL Ceiling</text>
  </g>

  <g filter="url(#shadow)">
    <rect x="480" y="285" width="195" height="100" rx="6" fill="url(#grad-amber)"/>
    <text x="577" y="305" class="service-text">App Service</text>
    <text x="577" y="320" class="label-text" text-anchor="middle" font-size="9" fill="#fffbeb">App Registration</text>
    <text x="577" y="333" class="label-text" text-anchor="middle" font-size="9" fill="#fffbeb">Client Credential Auth</text>
    <text x="577" y="346" class="label-text" text-anchor="middle" font-size="9" fill="#fffbeb">Scope Ceiling Enforce</text>
    <text x="577" y="359" class="label-text" text-anchor="middle" font-size="9" fill="#fffbeb">Launch Token Create</text>
  </g>

  <g filter="url(#shadow)">
    <rect x="685" y="285" width="195" height="100" rx="6" fill="url(#grad-blue)"/>
    <text x="782" y="305" class="service-text">Authz Middleware</text>
    <text x="782" y="320" class="label-text" text-anchor="middle" font-size="9" fill="#eff6ff">Bearer Token Validation</text>
    <text x="782" y="333" class="label-text" text-anchor="middle" font-size="9" fill="#eff6ff">Scope Enforcement</text>
    <text x="782" y="346" class="label-text" text-anchor="middle" font-size="9" fill="#eff6ff">Rate Limiting</text>
    <text x="782" y="359" class="label-text" text-anchor="middle" font-size="9" fill="#eff6ff">Revocation Check</text>
  </g>

  <g filter="url(#shadow)">
    <rect x="890" y="285" width="195" height="100" rx="6" fill="url(#grad-purple)"/>
    <text x="987" y="305" class="service-text">Delegation Service</text>
    <text x="987" y="320" class="label-text" text-anchor="middle" font-size="9" fill="#faf5ff">Scope Attenuation</text>
    <text x="987" y="333" class="label-text" text-anchor="middle" font-size="9" fill="#faf5ff">Delegation Chains</text>
    <text x="987" y="346" class="label-text" text-anchor="middle" font-size="9" fill="#faf5ff">Chain Verification</text>
    <text x="987" y="359" class="label-text" text-anchor="middle" font-size="9" fill="#faf5ff">Child Token Issue</text>
  </g>

  <!-- Row 2: Admin, Revocation, Audit, Observability, Store -->
  <g filter="url(#shadow)">
    <rect x="70" y="405" width="195" height="100" rx="6" fill="url(#grad-blue)"/>
    <text x="167" y="425" class="service-text">Admin Service</text>
    <text x="167" y="440" class="label-text" text-anchor="middle" font-size="9" fill="#eff6ff">Bcrypt Secret Auth</text>
    <text x="167" y="453" class="label-text" text-anchor="middle" font-size="9" fill="#eff6ff">Admin JWT Issuance</text>
    <text x="167" y="466" class="label-text" text-anchor="middle" font-size="9" fill="#eff6ff">Launch Token Mgmt</text>
    <text x="167" y="479" class="label-text" text-anchor="middle" font-size="9" fill="#eff6ff">App CRUD Routes</text>
  </g>

  <g filter="url(#shadow)">
    <rect x="275" y="405" width="195" height="100" rx="6" fill="url(#grad-red)"/>
    <text x="372" y="425" class="service-text">Revocation Service</text>
    <text x="372" y="440" class="label-text" text-anchor="middle" font-size="9" fill="#fef2f2">Token Revocation</text>
    <text x="372" y="453" class="label-text" text-anchor="middle" font-size="9" fill="#fef2f2">Agent Revocation</text>
    <text x="372" y="466" class="label-text" text-anchor="middle" font-size="9" fill="#fef2f2">Task Revocation</text>
    <text x="372" y="479" class="label-text" text-anchor="middle" font-size="9" fill="#fef2f2">Chain Revocation</text>
  </g>

  <g filter="url(#shadow)">
    <rect x="480" y="405" width="195" height="100" rx="6" fill="url(#grad-amber)"/>
    <text x="577" y="425" class="service-text">Audit Log</text>
    <text x="577" y="440" class="label-text" text-anchor="middle" font-size="9" fill="#fffbeb">SHA-256 Hash Chain</text>
    <text x="577" y="453" class="label-text" text-anchor="middle" font-size="9" fill="#fffbeb">Tamper-Evident</text>
    <text x="577" y="466" class="label-text" text-anchor="middle" font-size="9" fill="#fffbeb">24 Event Types</text>
    <text x="577" y="479" class="label-text" text-anchor="middle" font-size="9" fill="#fffbeb">Queryable Trail</text>
  </g>

  <g filter="url(#shadow)">
    <rect x="685" y="405" width="195" height="100" rx="6" fill="url(#grad-teal)"/>
    <text x="782" y="425" class="service-text">Observability</text>
    <text x="782" y="440" class="label-text" text-anchor="middle" font-size="9" fill="#ecfdf5">Structured Logging</text>
    <text x="782" y="453" class="label-text" text-anchor="middle" font-size="9" fill="#ecfdf5">4 Log Levels</text>
    <text x="782" y="466" class="label-text" text-anchor="middle" font-size="9" fill="#ecfdf5">Prometheus Metrics</text>
    <text x="782" y="479" class="label-text" text-anchor="middle" font-size="9" fill="#ecfdf5">Request Logging</text>
  </g>

  <g filter="url(#shadow)">
    <rect x="890" y="405" width="195" height="100" rx="6" fill="url(#grad-blue)"/>
    <text x="987" y="425" class="service-text">Store (SQLite)</text>
    <text x="987" y="440" class="label-text" text-anchor="middle" font-size="9" fill="#eff6ff">Audit Events</text>
    <text x="987" y="453" class="label-text" text-anchor="middle" font-size="9" fill="#eff6ff">Revocation Lists</text>
    <text x="987" y="466" class="label-text" text-anchor="middle" font-size="9" fill="#eff6ff">App Registry</text>
    <text x="987" y="479" class="label-text" text-anchor="middle" font-size="9" fill="#eff6ff">Agents &amp; Nonces</text>
  </g>

  <!-- Internal connections row 1 → row 2 -->
  <path d="M 167 385 L 167 405" stroke="#0d9488" stroke-width="2" marker-end="url(#arr-teal)"/>
  <path d="M 372 385 L 372 405" stroke="#059669" stroke-width="2" marker-end="url(#arr-emerald)"/>
  <path d="M 577 385 L 577 405" stroke="#d97706" stroke-width="2" marker-end="url(#arr-amber)"/>
  <path d="M 782 385 L 782 405" stroke="#1d4ed8" stroke-width="2" marker-end="url(#arr-blue)"/>
  <path d="M 987 385 L 987 405" stroke="#7c3aed" stroke-width="2" marker-end="url(#arr-purple)"/>

  <!-- Horizontal connections -->
  <path d="M 265 335 L 275 335" stroke="#0d9488" stroke-width="2" marker-end="url(#arr-teal)"/>
  <path d="M 470 335 L 480 335" stroke="#059669" stroke-width="2" marker-end="url(#arr-emerald)"/>
  <path d="M 675 335 L 685 335" stroke="#d97706" stroke-width="2" marker-end="url(#arr-amber)"/>
  <path d="M 880 335 L 890 335" stroke="#1d4ed8" stroke-width="2" marker-end="url(#arr-blue)"/>
  <path d="M 470 455 L 480 455" stroke="#dc2626" stroke-width="2" marker-end="url(#arr-red)"/>
  <path d="M 675 455 L 685 455" stroke="#d97706" stroke-width="2" marker-end="url(#arr-amber)"/>
  <path d="M 880 455 L 890 455" stroke="#0d9488" stroke-width="2" marker-end="url(#arr-teal)"/>

  <!-- LAYER 3: MIDDLEWARE -->
  <g filter="url(#shadow-bold)">
    <rect x="60" y="535" width="1080" height="35" rx="6" fill="url(#grad-header)"/>
    <text x="600" y="557" class="header-text" text-anchor="middle" font-size="13">HTTP Middleware Stack</text>
  </g>

  <g filter="url(#shadow)">
    <rect x="70" y="590" width="240" height="55" rx="6" fill="url(#grad-emerald)"/>
    <text x="190" y="613" class="service-text">RequestID</text>
    <text x="190" y="630" class="label-text" text-anchor="middle" font-size="9" fill="#f0fdf4">RFC 9457 trace correlation</text>
  </g>
  <g filter="url(#shadow)">
    <rect x="330" y="590" width="240" height="55" rx="6" fill="url(#grad-teal)"/>
    <text x="450" y="613" class="service-text">Logging</text>
    <text x="450" y="630" class="label-text" text-anchor="middle" font-size="9" fill="#ecfdf5">Structured request/response</text>
  </g>
  <g filter="url(#shadow)">
    <rect x="590" y="590" width="240" height="55" rx="6" fill="url(#grad-amber)"/>
    <text x="710" y="613" class="service-text">MaxBytesBody</text>
    <text x="710" y="630" class="label-text" text-anchor="middle" font-size="9" fill="#fffbeb">Request size limiting</text>
  </g>
  <g filter="url(#shadow)">
    <rect x="850" y="590" width="240" height="55" rx="6" fill="url(#grad-blue)"/>
    <text x="970" y="613" class="service-text">Security Headers</text>
    <text x="970" y="630" class="label-text" text-anchor="middle" font-size="9" fill="#eff6ff">CSP, HSTS, X-Frame, etc.</text>
  </g>

  <!-- Arrows between middleware -->
  <path d="M 310 617 L 330 617" stroke="#059669" stroke-width="2" marker-end="url(#arr-emerald)"/>
  <path d="M 570 617 L 590 617" stroke="#0d9488" stroke-width="2" marker-end="url(#arr-teal)"/>
  <path d="M 830 617 L 850 617" stroke="#d97706" stroke-width="2" marker-end="url(#arr-amber)"/>

  <!-- LEGEND -->
  <g filter="url(#shadow)">
    <rect x="60" y="680" width="1080" height="130" rx="8" fill="white" stroke="#cbd5e1" stroke-width="1"/>
    <text x="600" y="702" class="label-text" text-anchor="middle" font-size="12" font-weight="700" fill="#1e3a5f">Key Flows &amp; Data Types</text>

    <line x1="80" y1="730" x2="120" y2="730" stroke="#0d9488" stroke-width="2" marker-end="url(#arr-teal)"/>
    <text x="135" y="735" class="label-text" font-size="10">Agent Registration &amp; Challenge-Response</text>

    <line x1="450" y1="730" x2="490" y2="730" stroke="#059669" stroke-width="2" marker-end="url(#arr-emerald)"/>
    <text x="505" y="735" class="label-text" font-size="10">Token Issuance &amp; Renewal</text>

    <line x1="820" y1="730" x2="860" y2="730" stroke="#d97706" stroke-width="2" marker-end="url(#arr-amber)"/>
    <text x="875" y="735" class="label-text" font-size="10">Audit &amp; Logging</text>

    <line x1="80" y1="760" x2="120" y2="760" stroke="#dc2626" stroke-width="2" marker-end="url(#arr-red)"/>
    <text x="135" y="765" class="label-text" font-size="10">Revocation &amp; Denial Flows</text>

    <line x1="450" y1="760" x2="490" y2="760" stroke="#1d4ed8" stroke-width="2" marker-end="url(#arr-blue)"/>
    <text x="505" y="765" class="label-text" font-size="10">Authorization &amp; Scope Enforcement</text>

    <line x1="820" y1="760" x2="860" y2="760" stroke="#7c3aed" stroke-width="2" marker-end="url(#arr-purple)"/>
    <text x="875" y="765" class="label-text" font-size="10">Delegation &amp; Scope Chains</text>

    <text x="80" y="793" class="label-text" font-size="10" fill="#1e3a5f">Solid arrows: Primary flows</text>
    <text x="380" y="793" class="label-text" font-size="10" fill="#1e3a5f">Dashed arrows: Operator/admin flows</text>
    <text x="800" y="793" class="label-text" font-size="10" fill="#1e3a5f">All services: Go stdlib crypto only</text>
  </g>

  <!-- Story annotation -->
  <g filter="url(#shadow)">
    <rect x="60" y="820" width="1080" height="22" rx="4" fill="#ecfdf5" stroke="#059669" stroke-width="1"/>
    <text x="600" y="835" class="label-text" text-anchor="middle" font-size="11" fill="#059669" font-weight="600">
      Operator registers App → App authenticates → Issues launch token → Agent registers via Ed25519 challenge-response → Broker issues scoped JWT → Agent accesses Resource Server → Token expires or is revoked → All events hash-chain audited
    </text>
  </g>
</svg>
